<svg id="Layer_1" xmlns="http://www.w3.org/2000/svg" viewBox="0 0 229.5 54.6"><style>.st1{fill:#ffffff}</style><path d="M93.2 40.5l-1.5-4.7H81.6l-1.5 4.7h-5.4l8.9-26.2h6.2l8.9 26.2h-5.5zm-10-9.6h7l-3.5-10.7-3.5 10.7zm44.7-2v11.5h-4.7V29.3c0-2.2-1.1-3.6-3.1-3.6-2.1 0-3.4 1.5-3.4 4.2v10.5h-4.6V29.3c0-2.2-1.1-3.6-3.1-3.6-2.1 0-3.4 1.5-3.4 4.2v10.5h-4.7V21.8h4.7v2c1.1-1.7 2.8-2.5 5.1-2.5 2.2 0 3.9.9 4.9 2.7 1.2-1.8 3-2.7 5.4-2.7 4.2-.1 6.9 3 6.9 7.6zm20.1-4.8c1.7 1.9 2.6 4.2 2.6 7s-.9 5.1-2.6 7c-1.7 1.9-3.8 2.8-6.3 2.8s-4.5-.9-5.9-2.7v2.2h-4.7V14.3h4.7V24c1.4-1.8 3.3-2.7 5.9-2.7 2.5-.1 4.6.9 6.3 2.8zm-7.1 12.3c1.5 0 2.7-.5 3.6-1.5 1-1 1.5-2.3 1.5-3.8s-.5-2.8-1.5-3.8c-.9-1-2.1-1.5-3.6-1.5s-2.7.5-3.6 1.5c-.9 1-1.4 2.2-1.4 3.8 0 1.5.5 2.8 1.4 3.8.9 1 2.1 1.5 3.6 1.5zm11.8-19.9c0-1.6 1.3-3 2.9-3 1.6 0 2.9 1.4 2.9 3s-1.3 3-2.9 3c-1.6 0-2.9-1.3-2.9-3zm.5 24V21.8h4.7v18.7h-4.7zm16.5-11.4c2.7.6 6.1 1.9 6.1 5.9 0 1.9-.7 3.4-2.1 4.5-1.4 1-3.1 1.5-5.2 1.5-3.7 0-6.3-1.5-7.6-4.5l4.1-2.4c.5 1.6 1.7 2.4 3.6 2.4 1.7 0 2.5-.5 2.5-1.6 0-1-1.5-1.6-3.3-2.1-2.7-.7-6.1-1.9-6.1-5.8 0-1.8.7-3.3 2-4.3 1.3-1.1 3-1.6 4.9-1.6 2.9 0 5.5 1.4 6.9 4l-4 2.2c-.6-1.3-1.6-1.9-2.9-1.9-1.2 0-2.1.6-2.1 1.5-.1 1.2 1.3 1.7 3.2 2.2zm22.4-7.3h4.7v18.7h-4.7v-2.2c-1.4 1.8-3.4 2.7-5.9 2.7-2.4 0-4.5-.9-6.3-2.8-1.7-1.9-2.6-4.3-2.6-7 0-2.8.9-5.1 2.6-7 1.7-1.9 3.8-2.9 6.3-2.9s4.5.9 5.9 2.7v-2.2zm-5 14.6c1.5 0 2.7-.5 3.6-1.5 1-1 1.5-2.3 1.5-3.8s-.5-2.8-1.5-3.8c-.9-1-2.1-1.5-3.6-1.5s-2.7.5-3.6 1.5c-.9 1-1.4 2.2-1.4 3.8 0 1.5.5 2.8 1.4 3.8.9 1 2.1 1.5 3.6 1.5zm23-18c-2.6-.2-3.9.9-3.9 3.2v.2h3.9v4.6h-3.9v14.1h-4.7V26.4h-2.6v-4.6h2.6v-.2c0-5.3 2.9-8.2 8.5-7.8l.1 4.6zm5.4 14.7c.6 2.4 2.3 3.5 5.1 3.5 1.8 0 3.2-.6 4.1-1.9l3.8 2.2c-1.8 2.7-4.4 4-7.9 4-3 0-5.4-.9-7.2-2.8-1.8-1.9-2.7-4.2-2.7-7.1 0-2.8.9-5.2 2.7-7 1.8-1.9 4.1-2.8 6.9-2.8 2.7 0 4.9.9 6.6 2.8 1.7 1.9 2.6 4.2 2.6 7 0 .6-.1 1.3-.2 2l-13.8.1zm9.2-3.7c-.5-2.5-2.4-3.8-4.5-3.8-2.5 0-4.2 1.4-4.8 3.8h9.3z" fill="#ffffff"/><path class="st1" d="M35.4 16c-5.6 0-12.2 3-14.8 8-1.1 2.1-1.5 4.4-1.6 5.7 0 .3-.5.4-.6.1-.8-1.5-2.2-4.4-2.2-7.4 0-6.3 2.8-12.1 8.3-15.4 1.5-.9 3.1-1.4 4.8-1.8 1.6-.4 3.3-.8 4.6-1.9.7-.6 1.2-1.6 1.9-2.2.9-.8 2-1.2 3.2-1 .2 0 .5.1.7.1 2.6.7 2.9 2.8 3 4.8.1.9.4 1.7.8 2.3 2.1 2.9 6.1 4.3 9.5 11.3 2.1 4.3 2.5 8.7 2.5 11.3 0 .4-.5.5-.7.1-1.5-4.3-6.4-14-19.4-14z"/><path class="st1" d="M16.1 31.7c2.8 4.9 8.6 9.1 14.3 8.9 2.4-.1 4.5-.9 5.7-1.5.3-.1.6.2.4.5-.9 1.4-2.8 4.1-5.3 5.6-5.4 3.1-11.9 3.7-17.4.5-1.5-.9-2.8-1.9-4-3.2-1.1-1.2-2.3-2.5-4-3.1-.9-.3-1.9-.2-2.9-.5-1.1-.4-2-1.1-2.5-2.2-.1-.2-.2-.5-.2-.7-.7-2.6 1-4 2.7-5.1.8-.5 1.3-1.2 1.6-1.9 1.5-3.2.7-7.4 5-13.8 2.7-3.9 6.3-6.5 8.5-7.8.3-.2.7.2.4.5-2.8 3.4-8.8 12.5-2.3 23.8z"/><path class="st1" d="M39.3 40.5c2.8-4.9 3.6-12 .5-16.8-1.3-2-3.1-3.5-4.1-4.2-.3-.2-.1-.6.2-.6 1.7 0 4.9.3 7.5 1.8 5.4 3.1 9.1 8.4 9.2 14.8 0 1.8-.3 3.4-.8 5.1-.5 1.6-1 3.3-.7 5 .2 1 .8 1.8 1 2.7.3 1.2 0 2.3-.7 3.3-.1.2-.3.4-.5.6-1.9 1.9-3.9 1.1-5.7.2-.8-.4-1.7-.5-2.4-.4-3.6.3-6.8 3.1-14.5 2.6-4.7-.4-8.8-2.2-11-3.5-.3-.2-.2-.7.2-.6 4.4.7 15.3 1.3 21.8-10z"/><path class="st1" d="M30.3 23c-3.5 0-6.4 2.9-6.4 6.4s2.9 6.4 6.4 6.4 6.4-2.9 6.4-6.4c-.1-3.5-2.9-6.4-6.4-6.4z"/></svg>
