<?xml version="1.0" encoding="utf-8"?>
<!-- Generator: Adobe Illustrator 21.1.0, SVG Export Plug-In . SVG Version: 6.00 Build 0)  -->
<svg version="1.1" id="Layer_1" xmlns="http://www.w3.org/2000/svg" xmlns:xlink="http://www.w3.org/1999/xlink" x="0px" y="0px"
	 viewBox="0 0 857 227.5" style="enable-background:new 0 0 857 227.5;" xml:space="preserve">
<style type="text/css">
	.st0{fill:#FFFFFF;}
	.st1{clip-path:url(#SVGID_2_);fill:#FFFFFF;}
</style>
<polygon class="st0" points="11.5,31 64.5,62 118.5,31 64.5,0 "/>
<polygon class="st0" points="130,50.5 130,112.5 76,143.5 76,81.5 "/>
<polygon class="st0" points="76,165.5 76,227.5 148,186.5 148,124.5 "/>
<polygon class="st0" points="0,112.5 54,143.5 54,81.5 0,50.5 "/>
<polygon class="st0" points="0,196.5 54,227.5 54,165.5 0,134.5 "/>
<g>
	<defs>
		<rect id="SVGID_1_" width="857" height="227.5"/>
	</defs>
	<clipPath id="SVGID_2_">
		<use xlink:href="#SVGID_1_"  style="overflow:visible;"/>
	</clipPath>
	<path class="st1" d="M322.2,151.8c0,23.4-11.7,35.1-35.1,35.1h-74c-2.9,0-4.9-1.9-4.9-4.9V55.4c0-2.9,1.9-4.9,4.9-4.9h66.2
		c23.4,0,35.1,11.7,35.1,35.1v3.9c0,18.5-13.6,22.4-13.6,22.4v1c0,0,21.4,3.9,21.4,26.3V151.8z M290.1,86.5
		c0-8.8-4.9-13.6-13.6-13.6h-43.8v30.2h43.8c8.8,0,13.6-4.9,13.6-13.6V86.5z M297.9,139.1c0-8.8-4.9-13.6-13.6-13.6h-51.6v39h51.6
		c8.8,0,13.6-4.9,13.6-13.6V139.1z"/>
	<path class="st1" d="M429.4,182c0,2.9-1.9,4.9-4.9,4.9h-11.7c-2.9,0-4.9-1.9-4.9-4.9v-4.9h-1c0,0-4.9,11.7-19.5,11.7h-14.6
		c-19.5,0-29.2-9.7-29.2-29.2v-2.9c0-19.5,9.7-29.2,29.2-29.2h35.1v-9.7c0-7.8-4.9-12.7-12.7-12.7h-13.6c-6.8,0-10.7,3.9-10.7,10.7
		c0,2.9-1.9,4.9-4.9,4.9h-11.7c-2.9,0-4.9-1.9-4.9-4.9c0-19.5,10.7-30.2,31.2-30.2h17.5c20.5,0,31.2,10.7,31.2,31.2V182z
		 M407.9,152.8V146h-32.1c-6.8,0-10.7,3.9-10.7,10.7v1.9c0,6.8,3.9,10.7,10.7,10.7h15.6C401.1,169.3,407.9,162.5,407.9,152.8"/>
	<path class="st1" d="M545.3,182c0,2.9-1.9,4.9-4.9,4.9h-11.7c-2.9,0-4.9-1.9-4.9-4.9v-64.3c0-7.8-4.9-12.7-12.7-12.7h-16.6
		c-9.7,0-16.6,6.8-16.6,16.6V182c0,2.9-1.9,4.9-4.9,4.9h-11.7c-2.9,0-4.9-1.9-4.9-4.9V92.4c0-2.9,1.9-4.9,4.9-4.9h11.7
		c2.9,0,4.9,1.9,4.9,4.9v4.9h1c0,0,4.9-11.7,19.5-11.7h15.6c20.5,0,31.2,10.7,31.2,31.2V182z"/>
	<path class="st1" d="M638.8,153.8c0-2.9,1.9-4.9,4.9-4.9h11.7c2.9,0,4.9,1.9,4.9,4.9v3.9c0,20.5-10.7,31.2-31.2,31.2h-26.3
		c-20.5,0-31.2-10.7-31.2-31.2v-40.9c0-20.5,10.7-31.2,31.2-31.2H629c20.5,0,31.2,10.7,31.2,31.2v3.9c0,2.9-1.9,4.9-4.9,4.9h-11.7
		c-2.9,0-4.9-1.9-4.9-4.9v-2.9c0-7.8-4.9-12.7-12.7-12.7h-20.5c-7.8,0-12.7,4.9-12.7,12.7v39c0,7.8,4.9,12.7,12.7,12.7h20.5
		c7.8,0,12.7-4.9,12.7-12.7V153.8z"/>
	<path class="st1" d="M683.6,116.7c0-20.5,10.7-31.2,31.2-31.2H743c20.5,0,31.2,10.7,31.2,31.2v40.9c0,20.5-10.7,31.2-31.2,31.2
		h-28.2c-20.5,0-31.2-10.7-31.2-31.2V116.7z M705,156.7c0,7.8,4.9,12.7,12.7,12.7h22.4c7.8,0,12.7-4.9,12.7-12.7v-39
		c0-7.8-4.9-12.7-12.7-12.7h-22.4c-7.8,0-12.7,4.9-12.7,12.7V156.7z"/>
	<path class="st1" d="M852.1,85.6c2.9,0,4.9,1.9,4.9,4.9v10.7c0,2.9-1.9,4.9-4.9,4.9h-13.6c-9.7,0-16.6,6.8-16.6,16.6V182
		c0,2.9-1.9,4.9-4.9,4.9h-11.7c-2.9,0-4.9-1.9-4.9-4.9V92.4c0-2.9,1.9-4.9,4.9-4.9H817c2.9,0,4.9,1.9,4.9,4.9v4.9h1
		c0,0,4.9-11.7,19.5-11.7H852.1z"/>
</g>
</svg>
