<?xml version="1.0" encoding="utf-8"?>
<!-- Generator: Adobe Illustrator 16.0.0, SVG Export Plug-In . SVG Version: 6.00 Build 0)  -->
<!DOCTYPE svg PUBLIC "-//W3C//DTD SVG 1.1//EN" "http://www.w3.org/Graphics/SVG/1.1/DTD/svg11.dtd">
<svg version="1.1" id="Layer_1" xmlns="http://www.w3.org/2000/svg" xmlns:xlink="http://www.w3.org/1999/xlink" x="0px" y="0px"
	 width="1149px" height="268px" viewBox="0 0 1149 268" enable-background="new 0 0 1149 268" xml:space="preserve">
<g>
	<g>
		<path fill="none" d="M1150,269c-383,0-766,0-1149,0C1,179.667,1,90.333,1,1c383,0,766,0,1149,0C1150,90.333,1150,179.667,1150,269
			z M389.207,79.178c0.538,0.635,1.075,1.269,1.612,1.903c1.332,14.581,2.703,29.158,3.984,43.743
			c1.196,13.594,2.252,27.199,3.451,40.794c1.564,17.731,3.199,35.46,4.826,53.188c0.726,7.916,1.506,15.826,2.28,23.939
			c12.5,0,24.738,0,37.203,0c13.501-76.557,26.965-152.905,40.478-229.53c-10.839,0-21.287,0-32.264,0
			c-8.014,45.391-16.024,90.774-24.035,136.159c-0.3-0.016-0.601-0.031-0.899-0.046c-4.032-45.338-8.063-90.677-12.102-136.082
			c-15.361,0-30.288,0-45.456,0c-13.492,76.539-26.95,152.881-40.459,229.515c11.072,0,21.66,0,32.199,0
			c0.314-0.654,0.644-1.078,0.726-1.545c3.415-19.311,6.808-38.625,10.203-57.938c3.54-20.131,7.089-40.26,10.62-60.391
			C384.131,108.32,386.664,93.748,389.207,79.178z M281.846,53.396c-0.28-0.037-0.562-0.074-0.843-0.111
			c0-2.165,0.167-4.346-0.026-6.494c-1.575-17.579-10.352-29.332-27.147-34.297c-3.328-0.984-6.801-1.674-10.254-2.011
			c-16.885-1.647-32.92,0.874-47.085,10.851c-13.148,9.261-20.931,22.414-24.341,37.757c-3.997,17.985-6.875,36.223-10.144,54.368
			c-3.976,22.073-7.908,44.155-11.75,66.252c-1.821,10.475-3.825,20.93-2.339,31.695c2.093,15.171,9.638,26.042,24.318,31.216
			c4.192,1.478,8.677,2.448,13.103,2.882c17.239,1.688,33.593-0.988,47.826-11.586c12.858-9.572,20.421-22.826,23.713-38.209
			c3.856-18.021,6.809-36.241,10.057-54.393c3.6-20.114,7.145-40.24,10.603-60.38C279.108,71.779,280.418,62.577,281.846,53.396z
			 M655.832,90.152c0.639-3.35,1.215-6.272,1.752-9.202c2.131-11.622,4.313-23.212,3.48-35.159
			c-1.197-17.176-11.512-29.73-28.229-33.803c-2.739-0.668-5.527-1.277-8.327-1.532c-17.072-1.553-33.249,0.906-47.357,11.469
			c-12.433,9.306-19.77,22.165-22.979,36.975c-4.291,19.799-7.533,39.827-11.12,59.775c-3.616,20.116-7.13,40.251-10.634,60.388
			c-1.909,10.967-4.147,21.885-2.523,33.17c2.185,15.178,9.684,25.877,24.598,30.879c8.539,2.863,17.313,3.393,26.145,2.725
			c11.97-0.904,23.166-4.252,32.899-11.686c12.811-9.78,20.178-23.106,23.336-38.439c4.891-23.753,8.797-47.709,13.096-71.583
			c0.517-2.869,0.873-5.766,1.344-8.923c-17.002,0-33.45,0-50.419,0c-1.896,10.72-3.794,21.438-5.785,32.691
			c5.489,0,10.588,0,15.988,0c-0.099,1.771-0.045,3.08-0.263,4.344c-1.669,9.662-3.245,19.344-5.149,28.96
			c-1.253,6.332-2.448,12.767-4.646,18.801c-4.51,12.39-17.571,14.733-26.832,11.672c-3.668-1.212-6.601-3.638-7.228-7.586
			c-0.616-3.894-1.177-8.001-0.597-11.838c2.039-13.47,4.567-26.866,6.935-40.286c4.588-26.018,9.103-52.049,13.854-78.037
			c1.159-6.338,2.436-12.808,4.849-18.73c4.55-11.159,14.115-13.501,24.235-11.883c4.57,0.73,8.149,3.357,9.36,7.975
			c0.827,3.16,1.214,6.587,0.981,9.837c-0.314,4.454-1.418,8.852-2.158,13.278c-0.86,5.154-1.694,10.313-2.588,15.751
			C633.477,90.152,644.417,90.152,655.832,90.152z M103.885,157.402c-1.309,7.324-2.455,14.531-3.914,21.676
			c-1.424,6.979-2.569,14.098-4.899,20.785c-4.202,12.066-16.685,14.8-26.258,12.012c-4.08-1.188-7.251-3.752-7.934-8.132
			c-0.581-3.731-1.09-7.673-0.526-11.353c2.062-13.468,4.569-26.867,6.937-40.287c4.59-26.018,9.112-52.047,13.861-78.037
			c1.158-6.339,2.415-12.807,4.799-18.744c4.493-11.193,13.985-13.597,24.156-12.052c4.771,0.725,8.444,3.485,9.626,8.331
			c0.772,3.171,1.081,6.601,0.808,9.848c-0.389,4.618-1.535,9.17-2.299,13.76c-0.807,4.838-1.544,9.688-2.346,14.746
			c11.648,0,22.726,0,33.969,0c0.604-3.154,1.181-6.071,1.717-8.996c2.13-11.622,4.322-23.21,3.49-35.158
			c-1.196-17.184-11.491-29.727-28.219-33.811c-2.739-0.669-5.527-1.275-8.327-1.531c-17.072-1.558-33.248,0.897-47.364,11.451
			c-12.438,9.3-19.777,22.155-22.988,36.964c-4.292,19.799-7.534,39.828-11.119,59.777c-3.616,20.116-7.114,40.254-10.636,60.387
			c-1.948,11.136-4.208,22.229-2.477,33.667c2.232,14.752,9.634,25.257,24.05,30.26c8.488,2.946,17.274,3.521,26.124,2.91
			c13.068-0.899,25.139-4.718,35.388-13.229c9.515-7.899,15.961-18.045,19.274-29.75c3.112-10.994,4.903-22.364,7.197-33.586
			c0.786-3.85,1.333-7.746,2.037-11.908C126.596,157.402,115.645,157.402,103.885,157.402z M682.992,242.777
			c12.357,0,24.133,0,35.876,0c0.341-0.993,0.723-1.762,0.864-2.569c3.121-17.837,6.392-35.649,9.258-53.528
			c1.956-12.199,5.172-23.787,10.621-35.037c19.781-40.838,38.982-81.957,58.395-122.975c2.389-5.048,4.722-10.122,7.179-15.396
			c-11.81,0-23.076,0-34.472,0c-5.134,11.74-10.184,23.303-15.244,34.861c-5.065,11.569-10.159,23.126-15.211,34.701
			c-4.966,11.377-9.644,22.888-15.868,33.707c-2.899-34.418-5.801-68.835-8.691-103.164c-12.842,0-25.222,0-37.772,0
			c1.486,12.773,2.878,25.16,4.379,37.533c1.822,15.017,3.763,30.018,5.606,45.031c2.31,18.81,4.646,37.616,6.815,56.441
			c0.663,5.765,1.422,11.629,1.033,17.372c-0.435,6.426-2.135,12.764-3.262,19.143C689.348,206.721,686.208,224.546,682.992,242.777
			z M305.37,242.768c13.498-76.574,26.966-152.979,40.461-229.534c-12.335,0-24.104,0-36.21,0
			c-13.502,76.573-26.974,152.979-40.473,229.534C281.492,242.768,293.261,242.768,305.37,242.768z M505.622,13.229
			c-13.501,76.569-26.974,152.977-40.475,229.544c12.335,0,24.104,0,36.221,0c13.497-76.569,26.967-152.978,40.464-229.544
			C529.507,13.229,517.737,13.229,505.622,13.229z M1039.351,130.825c-13.273-0.268-24.208,10.049-24.456,23.077
			c-0.257,13.467,10.099,24.563,23.26,24.926c13.216,0.363,24.501-10.32,24.796-23.477
			C1063.25,141.968,1052.791,131.098,1039.351,130.825z M831.97,185.246c13.504-0.082,24.17-10.783,23.942-24.132
			c-0.194-11.425-8.421-23.515-24.462-23.806c-12.894-0.234-23.632,11.063-23.589,24.076
			C807.906,174.945,818.396,185.329,831.97,185.246z M952.78,103.889c0.075,13.41,10.934,24.203,24.132,23.985
			c13.309-0.22,24.1-11.218,23.927-24.389c-0.172-13.156-11.212-23.771-24.583-23.636C963.102,79.981,952.707,90.626,952.78,103.889
			z M1135.048,38.11c0.062-13.449-10.474-24.086-23.95-24.182c-13.103-0.093-23.974,10.517-24.108,23.528
			c-0.141,13.368,10.489,24.345,23.715,24.487C1124.01,62.089,1134.987,51.342,1135.048,38.11z M926.242,219.378
			c0.426-10.938-8.224-23.651-24.208-23.907c-12.754-0.205-23.844,11.143-23.855,23.946c-0.011,13.147,11.225,24.399,24.144,24.179
			C915.9,243.361,926.313,232.82,926.242,219.378z M1094.139,58.68c-13.953,24.322-27.726,48.328-41.608,72.528
			c2.776,1.588,5.04,2.881,7.676,4.388c13.945-24.285,27.669-48.186,41.601-72.446C1099.295,61.686,1096.92,60.301,1094.139,58.68z
			 M925.345,200.941c13.46-23.879,26.627-47.238,39.955-70.884c-2.745-1.534-5.028-2.812-7.734-4.323
			c-13.358,23.688-26.593,47.153-39.938,70.817C920.408,198.134,922.688,199.43,925.345,200.941z M770.092,244.703
			c15.716-19.6,31.055-38.729,46.602-58.119c-2.65-2.046-4.797-3.703-7.02-5.417c-15.627,19.495-30.89,38.536-46.45,57.948
			C765.538,240.998,767.548,242.634,770.092,244.703z M876.057,203.436c1.808-1.539,3.889-3.311,5.092-4.334
			c-7.474-7.814-14.863-15.545-22.094-23.105c-1.996,1.799-3.944,3.557-5.414,4.882
			C861.279,188.564,868.836,196.169,876.057,203.436z M1020.438,134.229c-6.469-6.001-12.503-11.599-18.229-16.911
			c-1.374,1.291-3.282,3.084-5.6,5.262c6.169,5.633,12.266,11.2,18.666,17.045C1016.563,138.279,1018.383,136.378,1020.438,134.229z
			"/>
		<path fill="#FFFFFF" d="M389.207,79.178c-2.543,14.57-5.076,29.143-7.631,43.71c-3.531,20.131-7.08,40.26-10.62,60.391
			c-3.396,19.313-6.788,38.628-10.203,57.938c-0.082,0.467-0.41,0.891-0.726,1.545c-10.539,0-21.127,0-32.199,0
			c13.509-76.634,26.967-152.976,40.459-229.515c15.168,0,30.095,0,45.456,0c4.038,45.405,8.068,90.744,12.102,136.082
			c0.3,0.015,0.601,0.03,0.899,0.046c8.011-45.385,16.021-90.769,24.035-136.159c10.977,0,21.425,0,32.264,0
			c-13.513,76.625-26.977,152.974-40.478,229.53c-12.465,0-24.703,0-37.203,0c-0.774-8.113-1.556-16.023-2.28-23.939
			c-1.627-17.729-3.262-35.455-4.826-53.188c-1.199-13.595-2.255-27.2-3.451-40.794c-1.281-14.585-2.652-29.162-3.984-43.743
			c0-1.292,0-2.583,0-3.875c-0.397-0.001-0.795-0.002-1.192-0.002C389.487,77.861,389.348,78.52,389.207,79.178z"/>
		<path fill="#FFFFFF" d="M281.846,53.396c-1.428,9.182-2.737,18.384-4.31,27.54c-3.458,20.14-7.003,40.266-10.603,60.38
			c-3.248,18.15-6.2,36.369-10.057,54.393c-3.292,15.383-10.854,28.637-23.713,38.209c-14.233,10.598-30.587,13.271-47.826,11.586
			c-4.426-0.434-8.91-1.404-13.103-2.882c-14.681-5.174-22.226-16.045-24.318-31.216c-1.486-10.768,0.518-21.221,2.339-31.695
			c3.842-22.097,7.774-44.179,11.75-66.252c3.269-18.146,6.146-36.383,10.144-54.368c3.41-15.343,11.192-28.496,24.341-37.757
			c14.165-9.977,30.2-12.498,47.085-10.851c3.453,0.337,6.926,1.026,10.254,2.011c16.796,4.965,25.572,16.718,27.147,34.297
			c0.193,2.148,0.026,4.329,0.026,6.494C281.284,53.321,281.565,53.358,281.846,53.396z M183.613,197.135
			c0.157,0.02,0.314,0.039,0.472,0.059c0,1.332-0.138,2.681,0.023,3.992c0.751,6.092,3.856,9.996,9.683,11.272
			c10.279,2.254,19.551-0.865,24.501-10.558c1.196-2.342,2.214-4.883,2.722-7.448c1.872-9.445,3.518-18.937,5.209-28.418
			c5.571-31.228,11.132-62.457,16.677-93.689c0.668-3.762,1.297-7.535,1.807-11.321c0.999-7.415-1.708-14.002-6.773-16.446
			c-6.403-3.089-19.698-2.973-25.475,6.375c-2.476,4.007-4.388,8.643-5.359,13.245c-2.676,12.669-4.747,25.466-7.006,38.221
			c-4.258,24.039-8.495,48.08-12.705,72.127C186.071,182.064,184.868,189.604,183.613,197.135z"/>
		<path fill="#FFFFFF" d="M655.832,90.152c-11.415,0-22.355,0-33.982,0c0.894-5.438,1.728-10.597,2.588-15.751
			c0.74-4.427,1.844-8.824,2.158-13.278c0.231-3.25-0.154-6.677-0.981-9.837c-1.211-4.617-4.79-7.244-9.36-7.975
			c-10.12-1.618-19.687,0.724-24.234,11.883c-2.414,5.923-3.689,12.393-4.85,18.73c-4.751,25.988-9.266,52.02-13.854,78.037
			c-2.366,13.42-4.896,26.816-6.935,40.286c-0.58,3.837-0.021,7.944,0.597,11.838c0.628,3.948,3.56,6.374,7.228,7.586
			c9.261,3.062,22.322,0.718,26.832-11.672c2.196-6.034,3.393-12.47,4.646-18.801c1.904-9.616,3.48-19.298,5.149-28.96
			c0.218-1.264,0.164-2.571,0.263-4.344c-5.4,0-10.499,0-15.987,0c1.99-11.256,3.888-21.973,5.784-32.691
			c16.969,0,33.417,0,50.419,0c-0.471,3.157-0.827,6.054-1.344,8.923c-4.299,23.874-8.205,47.83-13.096,71.583
			c-3.158,15.333-10.525,28.659-23.336,38.439c-9.733,7.434-20.931,10.779-32.899,11.686c-8.83,0.668-17.604,0.141-26.145-2.725
			c-14.914-5.002-22.413-15.701-24.598-30.879c-1.624-11.285,0.614-22.203,2.523-33.17c3.504-20.137,7.018-40.271,10.634-60.388
			c3.587-19.948,6.829-39.977,11.12-59.775c3.209-14.81,10.546-27.669,22.979-36.975c14.108-10.563,30.285-13.021,47.357-11.469
			c2.8,0.255,5.588,0.864,8.327,1.532c16.719,4.072,27.032,16.627,28.229,33.803c0.832,11.947-1.351,23.537-3.48,35.159
			C657.047,83.88,656.471,86.803,655.832,90.152z"/>
		<path fill="#FFFFFF" d="M103.885,157.402c11.76,0,22.711,0,34.127,0c-0.704,4.162-1.251,8.06-2.037,11.908
			c-2.294,11.222-4.085,22.592-7.197,33.586c-3.313,11.705-9.76,21.851-19.274,29.75c-10.249,8.512-22.319,12.33-35.388,13.229
			c-8.85,0.608-17.636,0.036-26.124-2.91c-14.416-5.003-21.817-15.508-24.05-30.26c-1.731-11.438,0.528-22.531,2.477-33.667
			c3.522-20.133,7.021-40.271,10.636-60.387c3.585-19.949,6.827-39.979,11.119-59.777c3.21-14.809,10.549-27.664,22.988-36.964
			c14.116-10.554,30.292-13.009,47.364-11.451c2.8,0.256,5.588,0.862,8.327,1.531c16.728,4.084,27.022,16.627,28.219,33.811
			c0.832,11.948-1.36,23.536-3.49,35.158c-0.536,2.925-1.113,5.842-1.717,8.996c-11.243,0-22.32,0-33.969,0
			c0.802-5.059,1.539-9.908,2.346-14.746c0.764-4.59,1.91-9.142,2.299-13.76c0.273-3.247-0.035-6.677-0.808-9.848
			c-1.182-4.846-4.855-7.606-9.626-8.331C99.936,41.727,90.443,44.13,85.95,55.323c-2.384,5.938-3.641,12.405-4.799,18.744
			c-4.749,25.989-9.271,52.02-13.861,78.037c-2.367,13.42-4.875,26.819-6.937,40.287c-0.563,3.68-0.055,7.619,0.526,11.353
			c0.683,4.38,3.854,6.944,7.934,8.132c9.573,2.788,22.056,0.055,26.258-12.011c2.33-6.688,3.476-13.81,4.899-20.786
			C101.43,171.936,102.576,164.727,103.885,157.402z"/>
		<path fill="#FFFFFF" d="M682.992,242.777c3.216-18.231,6.354-36.057,9.506-53.879c1.127-6.381,2.827-12.719,3.262-19.144
			c0.389-5.743-0.37-11.608-1.034-17.372c-2.168-18.825-4.506-37.632-6.814-56.441c-1.845-15.014-3.784-30.015-5.606-45.031
			c-1.501-12.373-2.893-24.76-4.379-37.533c12.552,0,24.932,0,37.772,0c2.892,34.329,5.792,68.746,8.691,103.164
			c6.226-10.819,10.902-22.33,15.868-33.707c5.052-11.575,10.146-23.132,15.211-34.701c5.062-11.559,10.11-23.121,15.244-34.861
			c11.396,0,22.662,0,34.472,0c-2.457,5.273-4.79,10.348-7.179,15.396c-19.411,41.018-38.612,82.136-58.395,122.974
			c-5.449,11.252-8.665,22.84-10.621,35.039c-2.866,17.877-6.137,35.69-9.258,53.527c-0.143,0.809-0.523,1.576-0.864,2.57
			C707.125,242.777,695.351,242.777,682.992,242.777z"/>
		<path fill="#FFFFFF" d="M305.37,242.768c-12.109,0-23.878,0-36.222,0c13.499-76.556,26.971-152.96,40.473-229.534
			c12.105,0,23.875,0,36.21,0C332.336,89.789,318.868,166.193,305.37,242.768z"/>
		<path fill="#FFFFFF" d="M505.622,13.229c12.115,0,23.885,0,36.21,0c-13.497,76.567-26.967,152.975-40.464,229.544
			c-12.116,0-23.886,0-36.221,0C478.648,166.205,492.121,89.798,505.622,13.229z"/>
		<path fill="#FFFFFF" d="M1039.351,130.825c13.44,0.272,23.899,11.143,23.6,24.526c-0.295,13.155-11.58,23.84-24.796,23.477
			c-13.161-0.362-23.517-11.459-23.26-24.926C1015.143,140.874,1026.076,130.558,1039.351,130.825z M1023.768,154.833
			c0.058,8.543,6.872,15.29,15.275,15.122c8.422-0.169,15.176-7.141,15.012-15.497c-0.162-8.304-6.789-14.761-15.12-14.729
			C1030.152,139.759,1023.71,146.175,1023.768,154.833z"/>
		<path fill="#FFFFFF" d="M831.97,185.246c-13.571,0.083-24.063-10.301-24.107-23.86c-0.043-13.013,10.695-24.312,23.589-24.077
			c16.041,0.291,24.268,12.383,24.462,23.807C856.14,174.463,845.474,185.164,831.97,185.246z M816.743,161.211
			c-0.446,7.646,5.673,15.119,14.903,15.428c8.307,0.278,15.269-6.765,15.388-15.063c0.118-8.22-6.879-15.403-15.024-15.427
			C823.524,146.122,816.797,152.76,816.743,161.211z"/>
		<path fill="#FFFFFF" d="M952.78,103.889c-0.073-13.263,10.32-23.907,23.476-24.039c13.371-0.136,24.411,10.479,24.583,23.636
			c0.173,13.171-10.618,24.169-23.927,24.389C963.714,128.092,952.855,117.299,952.78,103.889z M976.757,88.765
			c-8.482,0.029-15.276,6.671-15.352,15.009c-0.073,8.188,6.936,15.187,15.243,15.221c8.271,0.034,15.242-6.862,15.306-15.141
			C992.019,95.5,985.205,88.737,976.757,88.765z"/>
		<path fill="#FFFFFF" d="M1135.048,38.11c-0.061,13.231-11.038,23.979-24.345,23.834c-13.225-0.143-23.854-11.119-23.715-24.487
			c0.136-13.012,11.007-23.621,24.108-23.528C1124.574,14.024,1135.108,24.661,1135.048,38.11z M1126.164,38.055
			c0.052-8.521-6.551-15.207-15.021-15.21c-8.634-0.003-15.25,6.481-15.261,14.956c-0.012,8.578,6.521,15.217,15.015,15.259
			C1119.438,53.103,1126.111,46.544,1126.164,38.055z"/>
		<path fill="#FFFFFF" d="M926.242,219.378c0.07,13.442-10.342,23.983-23.921,24.218c-12.919,0.221-24.153-11.029-24.144-24.179
			c0.013-12.806,11.103-24.151,23.855-23.946C918.02,195.727,926.668,208.438,926.242,219.378z M887.066,219.295
			c-0.109,8.289,6.682,15.303,15.021,15.516c8.047,0.203,15.379-6.883,15.578-15.056c0.194-8.019-7.06-15.462-15.116-15.514
			C894.23,204.188,887.175,211.048,887.066,219.295z"/>
		<path fill="#FFFFFF" d="M1094.139,58.68c2.781,1.621,5.156,3.006,7.667,4.47c-13.932,24.261-27.654,48.161-41.601,72.446
			c-2.636-1.507-4.898-2.8-7.676-4.388C1066.413,107.008,1080.186,83.002,1094.139,58.68z"/>
		<path fill="#FFFFFF" d="M925.345,200.941c-2.658-1.512-4.937-2.809-7.717-4.391c13.345-23.664,26.578-47.129,39.938-70.817
			c2.706,1.512,4.989,2.789,7.734,4.323C951.972,153.703,938.805,177.063,925.345,200.941z"/>
		<path fill="#FFFFFF" d="M770.092,244.703c-2.544-2.069-4.554-3.705-6.868-5.588c15.562-19.412,30.823-38.453,46.45-57.948
			c2.223,1.714,4.368,3.371,7.02,5.417C801.146,205.975,785.808,225.104,770.092,244.703z"/>
		<path fill="#FFFFFF" d="M876.057,203.436c-7.221-7.267-14.776-14.871-22.416-22.559c1.47-1.325,3.418-3.083,5.414-4.882
			c7.229,7.562,14.62,15.291,22.094,23.104C879.944,200.125,877.863,201.896,876.057,203.436z"/>
		<path fill="#FFFFFF" d="M1020.438,134.229c-2.056,2.148-3.875,4.05-5.163,5.396c-6.4-5.845-12.497-11.412-18.666-17.045
			c2.316-2.178,4.226-3.971,5.6-5.262C1007.936,122.631,1013.97,128.229,1020.438,134.229z"/>
		<path fill="#92D9FA" d="M389.207,79.178c0.141-0.658,0.28-1.316,0.42-1.974c0.397,0,0.795,0.001,1.192,0.002
			c0,1.292,0,2.583,0,3.875C390.282,80.446,389.745,79.813,389.207,79.178z"/>
		<path fill="none" d="M183.613,197.135c1.255-7.529,2.458-15.07,3.774-22.59c4.21-24.047,8.447-48.088,12.705-72.127
			c2.259-12.755,4.33-25.552,7.006-38.221c0.972-4.603,2.884-9.238,5.359-13.245c5.776-9.348,19.071-9.464,25.475-6.375
			c5.065,2.444,7.772,9.031,6.773,16.446c-0.51,3.786-1.139,7.56-1.807,11.321c-5.545,31.232-11.105,62.463-16.677,93.689
			c-1.691,9.48-3.337,18.973-5.209,28.418c-0.508,2.566-1.525,5.105-2.722,7.447c-4.95,9.692-14.222,12.813-24.501,10.559
			c-5.826-1.277-8.932-5.182-9.683-11.271c-0.161-1.313-0.023-2.66-0.023-3.992C183.928,197.174,183.771,197.154,183.613,197.135z"
			/>
		<path fill="none" d="M1023.768,154.833c-0.058-8.658,6.386-15.074,15.168-15.104c8.33-0.03,14.957,6.426,15.119,14.729
			c0.164,8.356-6.59,15.328-15.012,15.497C1030.64,170.123,1023.824,163.376,1023.768,154.833z"/>
		<path fill="none" d="M816.743,161.211c0.054-8.451,6.781-15.089,15.267-15.063c8.146,0.022,15.144,7.207,15.024,15.427
			c-0.119,8.3-7.081,15.343-15.388,15.063C822.416,176.33,816.297,168.857,816.743,161.211z"/>
		<path fill="none" d="M976.757,88.765c8.448-0.027,15.263,6.735,15.197,15.089c-0.063,8.278-7.034,15.175-15.306,15.141
			c-8.309-0.034-15.316-7.032-15.243-15.221C961.479,95.436,968.273,88.794,976.757,88.765z"/>
		<path fill="none" d="M1126.164,38.055c-0.053,8.489-6.727,15.048-15.268,15.005c-8.492-0.042-15.025-6.681-15.015-15.259
			c0.011-8.475,6.627-14.959,15.261-14.956C1119.613,22.848,1126.216,29.534,1126.164,38.055z"/>
		<path fill="none" d="M887.066,219.295c0.107-8.247,7.164-15.107,15.482-15.054c8.059,0.052,15.312,7.495,15.116,15.514
			c-0.199,8.173-7.531,15.259-15.578,15.056C893.748,234.598,886.957,227.584,887.066,219.295z"/>
	</g>
</g>
</svg>
